<svg width="143" height="34" viewBox="0 0 143 34" fill="none" xmlns="http://www.w3.org/2000/svg">
<path d="M18.752 8.696C18.752 10.056 18.4 11.304 17.696 12.44C16.992 13.576 15.968 14.504 14.624 15.224C13.28 15.944 11.68 16.368 9.824 16.496L8.792 22.28C8.392 24.504 7.304 25.616 5.528 25.616C4.552 25.616 3.648 25.328 2.816 24.752C2 24.176 1.344 23.296 0.848 22.112C0.352 20.928 0.104 19.472 0.104 17.744C0.104 14.496 0.624 11.744 1.664 9.488C2.72 7.216 4.128 5.52 5.888 4.4C7.664 3.264 9.616 2.696 11.744 2.696C13.248 2.696 14.52 2.96 15.56 3.488C16.616 4.016 17.408 4.736 17.936 5.648C18.48 6.544 18.752 7.56 18.752 8.696ZM10.256 14.024C13.536 13.608 15.176 11.904 15.176 8.912C15.176 7.856 14.824 7 14.12 6.344C13.432 5.672 12.36 5.336 10.904 5.336C9.256 5.336 7.816 5.856 6.584 6.896C5.368 7.936 4.424 9.384 3.752 11.24C3.096 13.08 2.768 15.184 2.768 17.552C2.768 18.544 2.864 19.424 3.056 20.192C3.264 20.96 3.52 21.56 3.824 21.992C4.144 22.408 4.448 22.616 4.736 22.616C5.136 22.616 5.44 22.064 5.648 20.96L6.44 16.424C5.816 16.328 5.544 16.288 5.624 16.304C5.144 16.224 4.832 16.08 4.688 15.872C4.544 15.648 4.472 15.368 4.472 15.032C4.472 14.68 4.568 14.4 4.76 14.192C4.968 13.984 5.248 13.88 5.6 13.88C5.76 13.88 5.88 13.888 5.96 13.904C6.344 13.968 6.64 14.008 6.848 14.024C7.056 12.776 7.352 11.104 7.736 9.008C7.832 8.464 8.048 8.08 8.384 7.856C8.736 7.616 9.144 7.496 9.608 7.496C10.136 7.496 10.512 7.6 10.736 7.808C10.976 8 11.096 8.312 11.096 8.744C11.096 9 11.08 9.208 11.048 9.368L10.256 14.024ZM20.4828 23.12C19.7628 23.12 19.1708 22.792 18.7068 22.136C18.2588 21.464 18.0348 20.632 18.0348 19.64C18.0348 18.44 18.1148 17.344 18.2748 16.352C18.4348 15.344 18.6988 14.28 19.0668 13.16C19.2268 12.68 19.4508 12.336 19.7388 12.128C20.0268 11.92 20.4828 11.816 21.1068 11.816C21.4588 11.816 21.6988 11.872 21.8268 11.984C21.9708 12.096 22.0428 12.264 22.0428 12.488C22.0428 12.616 21.9548 13.048 21.7788 13.784C21.6188 14.376 21.4908 14.912 21.3948 15.392C21.0748 17.072 20.9148 18.192 20.9148 18.752C20.9148 19.088 20.9548 19.328 21.0348 19.472C21.1148 19.6 21.2428 19.664 21.4188 19.664C21.6588 19.664 21.9548 19.424 22.3068 18.944C22.6748 18.464 23.0588 17.736 23.4588 16.76C23.8748 15.784 24.2748 14.584 24.6588 13.16C24.7868 12.68 24.9788 12.336 25.2348 12.128C25.5068 11.92 25.9068 11.816 26.4348 11.816C26.8028 11.816 27.0588 11.864 27.2028 11.96C27.3468 12.04 27.4188 12.2 27.4188 12.44C27.4188 12.84 27.2188 13.936 26.8188 15.728C26.3708 17.776 26.1468 19.04 26.1468 19.52C26.1468 19.824 26.2108 20.064 26.3388 20.24C26.4668 20.4 26.6348 20.48 26.8428 20.48C27.1628 20.48 27.5388 20.288 27.9708 19.904C28.4188 19.504 29.0108 18.864 29.7468 17.984C29.9388 17.76 30.1548 17.648 30.3948 17.648C30.6028 17.648 30.7628 17.744 30.8748 17.936C31.0028 18.128 31.0668 18.392 31.0668 18.728C31.0668 19.368 30.9148 19.864 30.6108 20.216C29.9228 21.064 29.1788 21.76 28.3788 22.304C27.5948 22.848 26.6988 23.12 25.6908 23.12C24.9228 23.12 24.3548 22.824 23.9868 22.232C23.6348 21.64 23.4588 20.808 23.4588 19.736C23.1868 20.824 22.7788 21.664 22.2348 22.256C21.6908 22.832 21.1068 23.12 20.4828 23.12ZM38.2168 17.648C38.4248 17.648 38.5848 17.744 38.6968 17.936C38.8248 18.128 38.8888 18.392 38.8888 18.728C38.8888 19.368 38.7368 19.864 38.4328 20.216C37.7448 21.064 36.9928 21.76 36.1768 22.304C35.3768 22.848 34.4648 23.12 33.4408 23.12C32.0328 23.12 30.9848 22.48 30.2968 21.2C29.6248 19.92 29.2888 18.264 29.2888 16.232C29.2888 14.28 29.5368 12.056 30.0328 9.56C30.5448 7.064 31.2888 4.92 32.2648 3.128C33.2568 1.336 34.4328 0.439999 35.7928 0.439999C36.5608 0.439999 37.1608 0.799999 37.5928 1.52C38.0408 2.224 38.2648 3.24 38.2648 4.568C38.2648 6.472 37.7368 8.68 36.6808 11.192C35.6248 13.704 34.1928 16.192 32.3848 18.656C32.4968 19.312 32.6808 19.784 32.9368 20.072C33.1928 20.344 33.5288 20.48 33.9448 20.48C34.6008 20.48 35.1768 20.296 35.6728 19.928C36.1688 19.544 36.8008 18.896 37.5688 17.984C37.7608 17.76 37.9768 17.648 38.2168 17.648ZM35.2648 2.816C34.8968 2.816 34.4808 3.48 34.0168 4.808C33.5528 6.136 33.1448 7.784 32.7928 9.752C32.4408 11.72 32.2488 13.608 32.2168 15.416C33.3528 13.544 34.2568 11.672 34.9288 9.8C35.6008 7.912 35.9368 6.192 35.9368 4.64C35.9368 3.424 35.7128 2.816 35.2648 2.816ZM41.4129 23.648C40.5809 23.648 39.9409 23.456 39.4929 23.072C39.0609 22.688 38.8449 22.256 38.8449 21.776C38.8449 21.36 38.9969 21 39.3009 20.696C39.6049 20.392 40.0529 20.24 40.6449 20.24C40.8529 20.24 41.0929 20.264 41.3649 20.312C41.6529 20.344 41.8689 20.368 42.0129 20.384C41.9969 19.968 41.9009 19.576 41.7249 19.208C41.5649 18.84 41.3569 18.488 41.1009 18.152C40.8449 17.8 40.6049 17.496 40.3809 17.24C39.8849 18.184 39.3889 18.968 38.8929 19.592C38.4129 20.216 37.8849 20.808 37.3089 21.368C37.0209 21.656 36.7169 21.8 36.3969 21.8C36.1409 21.8 35.9329 21.712 35.7729 21.536C35.6129 21.344 35.5329 21.112 35.5329 20.84C35.5329 20.52 35.6449 20.224 35.8689 19.952L36.1809 19.568C37.0609 18.48 37.7249 17.584 38.1729 16.88C38.4449 16.416 38.7649 15.8 39.1329 15.032C39.5009 14.248 39.8609 13.44 40.2129 12.608C40.5169 11.904 41.1489 11.552 42.1089 11.552C42.5569 11.552 42.8689 11.592 43.0449 11.672C43.2209 11.752 43.3089 11.88 43.3089 12.056C43.3089 12.152 43.2769 12.304 43.2129 12.512C43.1489 12.72 43.0609 12.928 42.9489 13.136C42.6609 13.712 42.5169 14.2 42.5169 14.6C42.5169 14.84 42.5969 15.104 42.7569 15.392C42.9329 15.68 43.1969 16.04 43.5489 16.472C44.0609 17.144 44.4449 17.72 44.7009 18.2C44.9729 18.664 45.1089 19.176 45.1089 19.736C45.1089 19.896 45.0929 20.12 45.0609 20.408C45.8449 20.104 46.7649 19.296 47.8209 17.984C48.0129 17.76 48.2289 17.648 48.4689 17.648C48.6769 17.648 48.8369 17.744 48.9489 17.936C49.0769 18.128 49.1409 18.392 49.1409 18.728C49.1409 19.336 48.9889 19.832 48.6849 20.216C47.8849 21.208 47.1169 21.888 46.3809 22.256C45.6609 22.608 44.7649 22.8 43.6929 22.832C43.0529 23.376 42.2929 23.648 41.4129 23.648ZM55.7831 18.368C55.9911 18.368 56.1511 18.464 56.2631 18.656C56.3911 18.848 56.4551 19.112 56.4551 19.448C56.4551 20.024 56.3191 20.52 56.0471 20.936C55.5991 21.624 55.0071 22.16 54.2711 22.544C53.5511 22.928 52.6871 23.12 51.6791 23.12C50.1431 23.12 48.9511 22.664 48.1031 21.752C47.2551 20.824 46.8311 19.576 46.8311 18.008C46.8311 16.904 47.0631 15.88 47.5271 14.936C47.9911 13.976 48.6311 13.216 49.4471 12.656C50.2791 12.096 51.2151 11.816 52.2551 11.816C53.1831 11.816 53.9271 12.096 54.4871 12.656C55.0471 13.2 55.3271 13.944 55.3271 14.888C55.3271 15.992 54.9271 16.944 54.1271 17.744C53.3431 18.528 51.9991 19.152 50.0951 19.616C50.4791 20.352 51.1271 20.72 52.0391 20.72C52.6951 20.72 53.2311 20.568 53.6471 20.264C54.0791 19.96 54.5751 19.448 55.1351 18.728C55.3271 18.488 55.5431 18.368 55.7831 18.368ZM51.8471 14.168C51.2551 14.168 50.7511 14.512 50.3351 15.2C49.9351 15.888 49.7351 16.72 49.7351 17.696V17.744C50.6791 17.52 51.4231 17.184 51.9671 16.736C52.5111 16.288 52.7831 15.768 52.7831 15.176C52.7831 14.872 52.6951 14.632 52.5191 14.456C52.3591 14.264 52.1351 14.168 51.8471 14.168ZM69.4578 23.12C68.3538 23.12 67.3538 22.848 66.4578 22.304C65.5778 21.76 64.8818 20.976 64.3698 19.952C63.8578 18.912 63.6018 17.688 63.6018 16.28C63.6018 13.848 64.1218 11.6 65.1618 9.536C66.2018 7.456 67.7378 5.792 69.7698 4.544C71.8018 3.28 74.2418 2.648 77.0898 2.648C77.8258 2.648 78.6098 2.704 79.4418 2.816C80.2898 2.928 81.0578 3.096 81.7458 3.32C82.1938 3.448 82.4178 3.768 82.4178 4.28C82.4178 4.696 82.2578 5.088 81.9378 5.456C81.6338 5.824 81.2738 6.008 80.8578 6.008C80.7298 6.008 80.6338 6 80.5698 5.984C79.7378 5.792 79.0258 5.656 78.4338 5.576C77.8418 5.48 77.2178 5.432 76.5618 5.432C74.5298 5.432 72.8018 5.928 71.3778 6.92C69.9538 7.896 68.8898 9.192 68.1858 10.808C67.4818 12.424 67.1298 14.168 67.1298 16.04C67.1298 17.4 67.3938 18.456 67.9218 19.208C68.4658 19.944 69.1698 20.312 70.0338 20.312C71.0098 20.312 71.8658 19.912 72.6018 19.112C73.3378 18.312 74.0098 17.016 74.6178 15.224C75.2258 13.432 75.8258 11 76.4178 7.928C76.5138 7.48 76.7058 7.176 76.9938 7.016C77.2818 6.856 77.6658 6.776 78.1458 6.776C79.2818 6.776 79.8498 7.144 79.8498 7.88C79.8498 8.008 79.8258 8.168 79.7778 8.36C79.3618 9.912 78.9778 11.632 78.6258 13.52C78.2898 15.392 78.1218 16.816 78.1218 17.792C78.1218 18.656 78.2498 19.288 78.5058 19.688C78.7618 20.072 79.1538 20.264 79.6818 20.264C80.1938 20.264 80.6818 20.096 81.1458 19.76C81.6098 19.408 82.1938 18.816 82.8978 17.984C83.0898 17.76 83.3058 17.648 83.5458 17.648C83.7538 17.648 83.9138 17.744 84.0258 17.936C84.1538 18.128 84.2178 18.392 84.2178 18.728C84.2178 19.352 84.0658 19.848 83.7618 20.216C82.9778 21.16 82.2098 21.88 81.4578 22.376C80.7058 22.872 79.7858 23.12 78.6978 23.12C77.5778 23.12 76.6738 22.8 75.9858 22.16C75.2978 21.504 74.8658 20.584 74.6898 19.4C73.5058 21.88 71.7618 23.12 69.4578 23.12ZM86.861 23.12C85.293 23.12 84.069 22.68 83.189 21.8C82.325 20.904 81.893 19.728 81.893 18.272C81.893 16.976 82.149 15.84 82.661 14.864C83.173 13.888 83.837 13.136 84.653 12.608C85.469 12.08 86.325 11.816 87.221 11.816C88.101 11.816 88.781 12.08 89.261 12.608C89.757 13.12 90.005 13.784 90.005 14.6C90.005 15.272 89.853 15.84 89.549 16.304C89.261 16.768 88.877 17 88.397 17C88.093 17 87.845 16.928 87.653 16.784C87.477 16.64 87.389 16.44 87.389 16.184C87.389 16.072 87.405 15.944 87.437 15.8C87.469 15.656 87.493 15.552 87.509 15.488C87.589 15.248 87.629 15.024 87.629 14.816C87.629 14.608 87.573 14.448 87.461 14.336C87.365 14.224 87.221 14.168 87.029 14.168C86.661 14.168 86.317 14.336 85.997 14.672C85.677 14.992 85.421 15.432 85.229 15.992C85.037 16.552 84.941 17.168 84.941 17.84C84.941 19.696 85.749 20.624 87.365 20.624C88.021 20.624 88.725 20.408 89.477 19.976C90.245 19.528 90.997 18.864 91.733 17.984C91.925 17.76 92.141 17.648 92.381 17.648C92.589 17.648 92.749 17.744 92.861 17.936C92.989 18.128 93.053 18.392 93.053 18.728C93.053 19.336 92.901 19.832 92.597 20.216C91.845 21.144 90.941 21.864 89.885 22.376C88.845 22.872 87.837 23.12 86.861 23.12ZM101.934 17.648C102.142 17.648 102.302 17.744 102.414 17.936C102.542 18.128 102.606 18.392 102.606 18.728C102.606 19.368 102.454 19.864 102.15 20.216C101.462 21.064 100.71 21.76 99.8941 22.304C99.0781 22.848 98.1421 23.12 97.0861 23.12C93.8221 23.12 92.1901 20.824 92.1901 16.232C92.1901 15.528 92.2141 14.816 92.2621 14.096H91.3261C90.8461 14.096 90.5181 14.008 90.3421 13.832C90.1821 13.656 90.1021 13.376 90.1021 12.992C90.1021 12.096 90.4621 11.648 91.1821 11.648H92.5501C92.8221 9.888 93.2381 8.28 93.7981 6.824C94.3581 5.368 95.0301 4.208 95.8141 3.344C96.6141 2.48 97.4701 2.048 98.3821 2.048C99.0541 2.048 99.5821 2.344 99.9661 2.936C100.35 3.528 100.542 4.272 100.542 5.168C100.542 7.648 99.5021 9.808 97.4221 11.648H100.11C100.366 11.648 100.55 11.704 100.662 11.816C100.774 11.928 100.83 12.136 100.83 12.44C100.83 13.544 99.9261 14.096 98.1181 14.096H95.1901C95.1581 14.896 95.1421 15.52 95.1421 15.968C95.1421 17.632 95.3341 18.8 95.7181 19.472C96.1181 20.144 96.7421 20.48 97.5901 20.48C98.2781 20.48 98.8861 20.272 99.4141 19.856C99.9421 19.44 100.566 18.816 101.286 17.984C101.478 17.76 101.694 17.648 101.934 17.648ZM97.7341 4.352C97.4941 4.352 97.2221 4.656 96.9181 5.264C96.6301 5.856 96.3501 6.688 96.0781 7.76C95.8221 8.816 95.6061 9.992 95.4301 11.288C96.3741 10.472 97.0781 9.56 97.5421 8.552C98.0221 7.528 98.2621 6.6 98.2621 5.768C98.2621 4.824 98.0861 4.352 97.7341 4.352ZM103.796 10.232C103.124 10.232 102.62 10.08 102.284 9.776C101.948 9.456 101.78 9.016 101.78 8.456C101.78 7.896 101.996 7.432 102.428 7.064C102.876 6.68 103.428 6.488 104.084 6.488C104.676 6.488 105.156 6.632 105.524 6.92C105.892 7.208 106.076 7.616 106.076 8.144C106.076 8.784 105.868 9.296 105.452 9.68C105.036 10.048 104.484 10.232 103.796 10.232ZM103.604 23.12C102.564 23.12 101.804 22.752 101.324 22.016C100.86 21.28 100.628 20.304 100.628 19.088C100.628 18.368 100.716 17.448 100.892 16.328C101.084 15.192 101.324 14.136 101.612 13.16C101.756 12.648 101.948 12.296 102.188 12.104C102.428 11.912 102.812 11.816 103.34 11.816C104.156 11.816 104.564 12.088 104.564 12.632C104.564 13.032 104.412 13.96 104.108 15.416C103.724 17.176 103.532 18.368 103.532 18.992C103.532 19.472 103.596 19.84 103.724 20.096C103.852 20.352 104.068 20.48 104.372 20.48C104.66 20.48 105.02 20.28 105.452 19.88C105.884 19.48 106.46 18.848 107.18 17.984C107.372 17.76 107.588 17.648 107.828 17.648C108.036 17.648 108.196 17.744 108.308 17.936C108.436 18.128 108.5 18.392 108.5 18.728C108.5 19.368 108.348 19.864 108.044 20.216C106.46 22.152 104.98 23.12 103.604 23.12ZM118.673 15.704C118.721 15.688 118.801 15.68 118.913 15.68C119.153 15.68 119.337 15.76 119.465 15.92C119.593 16.08 119.657 16.296 119.657 16.568C119.657 17.064 119.561 17.456 119.369 17.744C119.177 18.016 118.889 18.216 118.505 18.344C117.769 18.584 116.985 18.704 116.153 18.704C115.449 18.704 114.785 18.608 114.161 18.416C113.697 19.168 113.185 19.944 112.625 20.744C111.985 21.656 111.433 22.28 110.969 22.616C110.505 22.952 109.977 23.12 109.385 23.12C108.729 23.12 108.209 22.864 107.825 22.352C107.457 21.84 107.225 21.032 107.129 19.928C106.937 17.688 106.841 15.728 106.841 14.048V13.208C106.857 12.68 107.001 12.312 107.273 12.104C107.545 11.896 107.953 11.792 108.497 11.792C108.913 11.792 109.217 11.888 109.409 12.08C109.617 12.256 109.721 12.56 109.721 12.992C109.721 14.832 109.833 17.224 110.057 20.168C111.017 18.744 111.737 17.608 112.217 16.76C111.977 16.296 111.857 15.744 111.857 15.104C111.857 14.56 111.977 14.032 112.217 13.52C112.457 13.008 112.785 12.592 113.201 12.272C113.617 11.952 114.089 11.792 114.617 11.792C115.081 11.792 115.457 11.96 115.745 12.296C116.033 12.616 116.177 13.088 116.177 13.712C116.177 14.432 115.985 15.256 115.601 16.184C116.209 16.152 117.017 16.032 118.025 15.824L118.673 15.704ZM120.718 10.232C120.046 10.232 119.542 10.08 119.206 9.776C118.87 9.456 118.702 9.016 118.702 8.456C118.702 7.896 118.918 7.432 119.35 7.064C119.798 6.68 120.35 6.488 121.006 6.488C121.598 6.488 122.078 6.632 122.446 6.92C122.814 7.208 122.998 7.616 122.998 8.144C122.998 8.784 122.79 9.296 122.374 9.68C121.958 10.048 121.406 10.232 120.718 10.232ZM120.526 23.12C119.486 23.12 118.726 22.752 118.246 22.016C117.782 21.28 117.55 20.304 117.55 19.088C117.55 18.368 117.638 17.448 117.814 16.328C118.006 15.192 118.246 14.136 118.534 13.16C118.678 12.648 118.87 12.296 119.11 12.104C119.35 11.912 119.734 11.816 120.262 11.816C121.078 11.816 121.486 12.088 121.486 12.632C121.486 13.032 121.334 13.96 121.03 15.416C120.646 17.176 120.454 18.368 120.454 18.992C120.454 19.472 120.518 19.84 120.646 20.096C120.774 20.352 120.99 20.48 121.294 20.48C121.582 20.48 121.942 20.28 122.374 19.88C122.806 19.48 123.382 18.848 124.102 17.984C124.294 17.76 124.51 17.648 124.75 17.648C124.958 17.648 125.118 17.744 125.23 17.936C125.358 18.128 125.422 18.392 125.422 18.728C125.422 19.368 125.27 19.864 124.966 20.216C123.382 22.152 121.902 23.12 120.526 23.12ZM134.184 17.648C134.392 17.648 134.552 17.744 134.664 17.936C134.792 18.128 134.856 18.392 134.856 18.728C134.856 19.368 134.704 19.864 134.4 20.216C133.712 21.064 132.96 21.76 132.144 22.304C131.328 22.848 130.392 23.12 129.336 23.12C126.072 23.12 124.44 20.824 124.44 16.232C124.44 15.528 124.464 14.816 124.512 14.096H123.576C123.096 14.096 122.768 14.008 122.592 13.832C122.432 13.656 122.352 13.376 122.352 12.992C122.352 12.096 122.712 11.648 123.432 11.648H124.8C125.072 9.888 125.488 8.28 126.048 6.824C126.608 5.368 127.28 4.208 128.064 3.344C128.864 2.48 129.72 2.048 130.632 2.048C131.304 2.048 131.832 2.344 132.216 2.936C132.6 3.528 132.792 4.272 132.792 5.168C132.792 7.648 131.752 9.808 129.672 11.648H132.36C132.616 11.648 132.8 11.704 132.912 11.816C133.024 11.928 133.08 12.136 133.08 12.44C133.08 13.544 132.176 14.096 130.368 14.096H127.44C127.408 14.896 127.392 15.52 127.392 15.968C127.392 17.632 127.584 18.8 127.968 19.472C128.368 20.144 128.992 20.48 129.84 20.48C130.528 20.48 131.136 20.272 131.664 19.856C132.192 19.44 132.816 18.816 133.536 17.984C133.728 17.76 133.944 17.648 134.184 17.648ZM129.984 4.352C129.744 4.352 129.472 4.656 129.168 5.264C128.88 5.856 128.6 6.688 128.328 7.76C128.072 8.816 127.856 9.992 127.68 11.288C128.624 10.472 129.328 9.56 129.792 8.552C130.272 7.528 130.512 6.6 130.512 5.768C130.512 4.824 130.336 4.352 129.984 4.352ZM141.302 11.816C141.67 11.816 141.926 11.864 142.07 11.96C142.214 12.056 142.286 12.216 142.286 12.44C142.286 12.824 142.078 14.192 141.662 16.544C141.294 18.8 141.078 20.136 141.014 20.552C140.422 24.664 139.606 27.92 138.566 30.32C137.526 32.72 136.142 33.92 134.414 33.92C133.598 33.92 132.934 33.664 132.422 33.152C131.91 32.656 131.654 32 131.654 31.184C131.654 30.432 131.822 29.664 132.158 28.88C132.51 28.096 133.15 27.192 134.078 26.168C135.022 25.16 136.35 24 138.062 22.688L138.134 22.136C138.246 21.544 138.374 20.696 138.518 19.592C138.198 20.744 137.75 21.624 137.174 22.232C136.598 22.824 135.99 23.12 135.35 23.12C134.63 23.12 134.038 22.792 133.574 22.136C133.126 21.464 132.902 20.632 132.902 19.64C132.902 18.44 132.982 17.344 133.142 16.352C133.302 15.344 133.566 14.28 133.934 13.16C134.094 12.68 134.318 12.336 134.606 12.128C134.894 11.92 135.35 11.816 135.974 11.816C136.326 11.816 136.566 11.872 136.694 11.984C136.838 12.096 136.91 12.264 136.91 12.488C136.91 12.616 136.822 13.048 136.646 13.784C136.486 14.376 136.358 14.912 136.262 15.392C136.134 16.048 136.022 16.68 135.926 17.288C135.83 17.88 135.782 18.368 135.782 18.752C135.782 19.36 135.95 19.664 136.286 19.664C136.526 19.664 136.822 19.424 137.174 18.944C137.542 18.464 137.926 17.736 138.326 16.76C138.742 15.784 139.142 14.584 139.526 13.16C139.654 12.68 139.846 12.336 140.102 12.128C140.374 11.92 140.774 11.816 141.302 11.816ZM134.678 31.592C135.078 31.592 135.526 31.128 136.022 30.2C136.518 29.272 137.014 27.728 137.51 25.568C136.278 26.608 135.382 27.552 134.822 28.4C134.278 29.264 134.006 30.016 134.006 30.656C134.006 30.928 134.054 31.152 134.15 31.328C134.262 31.504 134.438 31.592 134.678 31.592Z" fill="#03045E"/>
</svg>
